<?xml version="1.0" encoding="utf-8"?>
<!-- Generator: Adobe Illustrator 22.1.0, SVG Export Plug-In . SVG Version: 6.00 Build 0)  -->
<svg version="1.1" id="Capa_1" xmlns="http://www.w3.org/2000/svg" xmlns:xlink="http://www.w3.org/1999/xlink" x="0px" y="0px"
	 width="75px" height="13.3px" viewBox="0 0 75 13.3" style="enable-background:new 0 0 75 13.3;" xml:space="preserve">
<style type="text/css">
	.st0{fill:#ED00B5;}
</style>
<g>
	<path class="st0" d="M3,3.7v2.9h3.9v1.9H3v4.4H0.3V1.8h7.3L7.4,3.7H3z"/>
	<path class="st0" d="M14.5,4.4v6.8h2.2v1.7H9.6v-1.7H12v-5H9.7V4.4H14.5z M14.1,0.4c0.3,0.3,0.4,0.6,0.4,1s-0.1,0.8-0.4,1
		S13.4,2.8,13,2.8s-0.8-0.1-1.1-0.4s-0.4-0.6-0.4-1s0.1-0.7,0.4-1C12.2,0.1,12.5,0,13,0C13.4,0,13.8,0.1,14.1,0.4z"/>
	<path class="st0" d="M26.8,4.4L26.3,8h-1.6V6.4c-0.5,0.1-0.9,0.3-1.2,0.8c-0.4,0.4-0.6,1-0.8,1.6v2.4h1.7v1.7H19v-1.7h1.1V6.1H19
		V4.4h3.1l0.4,1.9c0.3-0.7,0.7-1.3,1.2-1.6c0.5-0.4,1-0.5,1.7-0.5C25.9,4.2,26.4,4.3,26.8,4.4z"/>
	<path class="st0" d="M35.8,11.2c0.1,0.1,0.2,0.3,0.4,0.3l-0.5,1.7c-0.5-0.1-0.9-0.2-1.3-0.3s-0.6-0.4-0.8-0.8
		c-0.3,0.4-0.7,0.7-1.2,0.9s-1,0.3-1.6,0.3c-0.9,0-1.6-0.2-2.1-0.7s-0.8-1.1-0.8-1.9c0-0.9,0.4-1.6,1.1-2.1c0.8-0.7,1.8-1,3.1-1h1.1
		V7.3c0-0.9-0.6-1.3-1.7-1.3c-0.3,0-0.6,0-1.1,0.1s-0.9,0.2-1.3,0.3l-0.6-1.7c0.5-0.2,1.1-0.4,1.7-0.5S31.3,4,31.8,4
		c2.5,0,3.7,1,3.7,3v3.3C35.7,10.8,35.7,11,35.8,11.2z M32.6,11.2c0.3-0.2,0.5-0.4,0.7-0.7V9.1h-0.6c-1.4,0-2,0.4-2,1.3
		c0,0.3,0.1,0.6,0.3,0.8c0.2,0.2,0.5,0.3,0.8,0.3C32,11.4,32.3,11.3,32.6,11.2z"/>
	<path class="st0" d="M44.7,1.9c0.6,0.2,1.1,0.5,1.6,0.9L45,4.3c-0.7-0.5-1.4-0.8-2.2-0.8s-1.4,0.3-1.8,1c-0.5,0.6-0.7,1.6-0.7,2.9
		s0.2,2.2,0.7,2.9c0.5,0.6,1.1,0.9,1.9,0.9c0.5,0,0.9-0.1,1.3-0.3c0.4-0.2,0.7-0.4,1.1-0.7l1.2,1.5c-1,1-2.2,1.5-3.7,1.5
		c-1,0-1.9-0.2-2.7-0.7c-0.8-0.4-1.4-1.1-1.8-2s-0.8-1.9-0.8-3.1s0.2-2.2,0.7-3.1c0.4-0.9,1.1-1.5,1.9-2c0.8-0.5,1.6-0.7,2.6-0.7
		C43.5,1.6,44.2,1.7,44.7,1.9z"/>
	<path class="st0" d="M54.4,5.4c0.7,0.8,1.1,1.9,1.1,3.3s-0.4,2.5-1.1,3.3c-0.7,0.8-1.7,1.2-3,1.2s-2.3-0.4-3-1.2s-1.1-1.9-1.1-3.3
		c0-0.9,0.2-1.7,0.5-2.4s0.8-1.2,1.4-1.6c0.6-0.4,1.4-0.6,2.2-0.6C52.7,4.2,53.7,4.6,54.4,5.4z M50.3,6.7c-0.2,0.4-0.4,1.1-0.4,2
		s0.1,1.6,0.4,2c0.2,0.4,0.6,0.6,1.2,0.6s0.9-0.2,1.2-0.6c0.2-0.4,0.4-1.1,0.4-2s-0.1-1.6-0.4-2c-0.2-0.4-0.6-0.6-1.2-0.6
		S50.5,6.2,50.3,6.7z"/>
	<path class="st0" d="M64.7,1.1V13h-2.2l-0.1-0.9c-0.3,0.4-0.6,0.7-1,0.9s-0.9,0.3-1.4,0.3c-1,0-1.8-0.4-2.3-1.2s-0.8-1.9-0.8-3.3
		c0-0.9,0.1-1.7,0.4-2.3s0.7-1.2,1.2-1.6s1.1-0.6,1.8-0.6c0.8,0,1.4,0.3,1.9,0.8V0.8L64.7,1.1z M59.8,6.7c-0.3,0.4-0.4,1.1-0.4,2
		c0,1,0.1,1.7,0.3,2.1s0.6,0.6,1,0.6c0.5,0,1-0.3,1.4-1V6.7c-0.2-0.2-0.4-0.4-0.6-0.5C61.3,6.1,61.1,6,60.8,6
		C60.4,6,60.1,6.2,59.8,6.7z"/>
	<path class="st0" d="M71.2,11.4c0.7,0,1.5-0.2,2.2-0.7l1,1.4c-0.4,0.4-0.9,0.6-1.5,0.9c-0.6,0.2-1.2,0.3-1.9,0.3
		c-1,0-1.8-0.2-2.4-0.6c-0.7-0.4-1.2-0.9-1.5-1.6s-0.5-1.5-0.5-2.4s0.2-1.6,0.5-2.3s0.8-1.2,1.4-1.6s1.4-0.6,2.2-0.6
		c0.8,0,1.5,0.2,2.1,0.5s1.1,0.8,1.4,1.5s0.5,1.4,0.5,2.3c0,0.4,0,0.7,0,0.9h-5.5C69.3,10.7,70,11.4,71.2,11.4z M69.6,6.4
		c-0.3,0.3-0.4,0.9-0.5,1.5h3.1c0-1.4-0.5-2-1.5-2C70.2,5.8,69.9,6,69.6,6.4z"/>
</g>
</svg>
